<svg width="119" height="40" viewBox="0 0 119 40" fill="none" xmlns="http://www.w3.org/2000/svg">
<path d="M29.0625 31H18.4219V29.7812H21.5625L18.0469 20.6875H8.34375L4.82812 29.7812H7.21875C7.375 29.7812 7.53125 29.7969 7.6875 29.8281C8.15625 29.8906 8.39062 30.2812 8.39062 31H0V29.7812H2.95312L13.4062 2.875H15.5156L26.2969 29.7812H27.8438C28 29.7812 28.1562 29.7969 28.3125 29.8281C28.8125 29.8906 29.0625 30.2812 29.0625 31ZM17.4844 19.3281L13.1719 8.125L8.85938 19.3281H17.4844ZM37.5938 38.7344H40.6875C40.875 38.7344 41.0312 38.75 41.1562 38.7812C41.625 38.8438 41.8594 39.2188 41.8594 39.9062H30.2344V38.7344C31.1719 38.7344 31.875 38.6562 32.3438 38.5C33.1562 38.2188 33.5625 37.375 33.5625 35.9688V12.2031H30.2344V11.0312H37.2656L37.5 16C37.7812 15.1875 38.1719 14.4375 38.6719 13.75C40.2031 11.5938 42.375 10.5156 45.1875 10.5156C47.0938 10.5156 48.7344 11.125 50.1094 12.3438C52.1406 14.1875 53.1562 16.9062 53.1562 20.5C53.1562 23.625 52.2812 26.2031 50.5312 28.2344C48.6562 30.3906 46.2969 31.4688 43.4531 31.4688C41.1719 31.3438 39.2188 30.5469 37.5938 29.0781V38.7344ZM43.5 12.4844C42.4375 12.4844 41.4531 12.8281 40.5469 13.5156C38.5469 15.0781 37.5469 17.875 37.5469 21.9062C37.5469 23.6875 37.7656 25.2188 38.2031 26.5C39.1094 29.0312 40.7031 30.2969 42.9844 30.2969C43.7031 30.2969 44.375 30.1562 45 29.875C47.4688 28.75 48.7031 25.7969 48.7031 21.0156C48.7031 20.0469 48.6406 19.125 48.5156 18.25C47.9531 14.4062 46.2812 12.4844 43.5 12.4844ZM67.0781 29.8281C67.2656 29.8281 67.4219 29.8438 67.5469 29.875C68.0156 29.9375 68.25 30.3125 68.25 31H56.3438V29.8281C57.2812 29.8281 57.9688 29.7656 58.4062 29.6406C59.25 29.3594 59.6719 28.5 59.6719 27.0625V12.2031H56.3438V11.0312H63.4219L63.6094 15.5312C63.9844 14.6562 64.4844 13.875 65.1094 13.1875C66.6094 11.5625 68.3281 10.75 70.2656 10.75C70.6094 10.75 70.9375 10.7812 71.25 10.8438C72.6875 11.1562 73.4062 12.0312 73.4062 13.4688C73.4062 13.6875 73.375 13.9219 73.3125 14.1719C73 15.1406 72.3281 15.625 71.2969 15.625C71.0781 15.625 70.8594 15.5938 70.6406 15.5312C70.1406 15.375 69.6406 14.8594 69.1406 13.9844C68.7031 13.2031 68.25 12.8125 67.7812 12.8125C67.4062 12.8125 66.9531 13.0312 66.4219 13.4688C64.8281 14.8125 63.9219 16.8281 63.7031 19.5156V29.8281H67.0781ZM84.75 29.8281C84.9375 29.8281 85.0938 29.8438 85.2188 29.875C85.6875 29.9375 85.9219 30.3125 85.9219 31H75V29.8281C75.9375 29.8281 76.6406 29.7656 77.1094 29.6406C78.0781 29.3594 78.5625 28.5 78.5625 27.0625V12.2031H75V11.0312H82.5469V29.8281H84.75ZM83.0625 4.32812C83.0625 4.73437 82.9688 5.14063 82.7812 5.54688C82.2812 6.57812 81.4688 7.09375 80.3438 7.09375C79.9375 7.09375 79.5469 7.01562 79.1719 6.85938C78.1094 6.35938 77.5781 5.51563 77.5781 4.32812C77.5781 3.92188 77.6719 3.51562 77.8594 3.10938C78.3594 2.07812 79.1875 1.5625 80.3438 1.5625C80.75 1.5625 81.1562 1.65625 81.5625 1.84375C82.5625 2.375 83.0625 3.20312 83.0625 4.32812ZM98.6719 29.8281C98.8281 29.8281 98.9844 29.8438 99.1406 29.875C99.5781 29.9375 99.7969 30.3125 99.7969 31H88.5938V29.8281C89.625 29.8281 90.3906 29.75 90.8906 29.5938C91.7344 29.3125 92.1562 28.4688 92.1562 27.0625V1.70312H88.5938V0.53125H96.1406V29.8281H98.6719ZM109.969 30.2031C112.125 30.2031 113.531 29.5312 114.188 28.1875C114.406 27.75 114.516 27.2969 114.516 26.8281C114.516 25.4531 113.547 24.2812 111.609 23.3125C111.203 23.0938 110.531 22.7812 109.594 22.375C107.094 21.3125 105.422 20.3125 104.578 19.375C103.703 18.375 103.266 17.2031 103.266 15.8594C103.266 13.6406 104.484 12.0625 106.922 11.125C108.078 10.7188 109.328 10.5156 110.672 10.5156C112.797 10.5156 114.594 10.9531 116.062 11.8281C116.062 10.9219 116.281 10.4062 116.719 10.2812C116.875 10.25 117.078 10.2344 117.328 10.2344V16.0938H116.062C116 13.2188 114.406 11.7656 111.281 11.7344C109.031 11.7344 107.625 12.4219 107.062 13.7969C106.938 14.1719 106.875 14.5469 106.875 14.9219C106.875 16.2656 107.828 17.4062 109.734 18.3438C110.172 18.5625 110.844 18.8594 111.75 19.2344C114.281 20.2656 115.969 21.2344 116.812 22.1406C117.719 23.1719 118.172 24.3906 118.172 25.7969C118.172 28.3906 116.812 30.1094 114.094 30.9531C113.031 31.2969 111.875 31.4688 110.625 31.4688C108.281 31.4375 106.25 30.8906 104.531 29.8281C104.531 30.6406 104.328 31.1094 103.922 31.2344C103.734 31.2656 103.516 31.2812 103.266 31.2812V24.1562H104.625C104.688 28.1562 106.469 30.1719 109.969 30.2031Z" fill="white"/>
</svg>
